# xmcd
#
# Track frame offsets: 
#        182
#        40442
#        86540
#        127217
#        170712
#
# Disc length: 2575 seconds
#
# Revision: 1
# Processed by: cddbd v1.5.2PL0 Copyright (c) Steve Scherf et al.
# Submitted via: ExactAudioCopy v1.0b3
#
DISCID=440a0d05
DTITLE=Ryszard FeliksStyla - Mój Rodzinny Blues
DYEAR=1900
DGENRE=Blues
TTITLE0=Mój Rodzinny Blues
TTITLE1=Pocztówka z Kruklanek
TTITLE2=Uśmiechnięty człowiek
TTITLE3=Wdzięczny temat
TTITLE4=Norbert blues
EXTD=
EXTT0=
EXTT1=
EXTT2=
EXTT3=
EXTT4=
PLAYORDER=
